<?xml version="1.0" encoding="utf-8"?>
<!-- Generator: Adobe Illustrator 25.0.0, SVG Export Plug-In . SVG Version: 6.00 Build 0)  -->
<svg version="1.1" id="Layer_1" xmlns="http://www.w3.org/2000/svg" xmlns:xlink="http://www.w3.org/1999/xlink" x="0px" y="0px"
	 viewBox="0 0 263.7 81.4" style="enable-background:new 0 0 263.7 81.4;" xml:space="preserve">
<style type="text/css">
	.st0{fill:#69CCE8;}
	.st1{fill:#3765AF;}
	.st2{fill:url(#SVGID_1_);}
	.st3{fill:#70C6AF;}
	.st4{fill:url(#SVGID_2_);}
	.st5{fill:url(#SVGID_3_);}
	.st6{fill:#47BDA9;}
	.st7{fill:url(#SVGID_4_);}
	.st8{fill:url(#SVGID_5_);}
	.st9{fill:#30455C;}
	.st10{fill:url(#SVGID_6_);}
	.st11{fill:#3866AF;}
</style>
<g>
	<path class="st0" d="M119,10.6v45.9h-7.6v-4.7c-1.2,1.8-2.9,3.2-5,4.3c-2.1,1-4.3,1.5-6.6,1.5c-2.5,0-4.8-0.5-6.9-1.5
		c-2.1-1-4-2.4-5.5-4.3c-1.5-1.7-2.6-3.6-3.4-5.8c-0.8-2.2-1.2-4.4-1.2-6.6c0-1.2,0.1-2.4,0.3-3.5c0.2-1.1,0.5-2.2,0.9-3.3
		c0.8-2.1,2-4.1,3.5-5.8c1.6-1.7,3.5-3.2,5.8-4.2c2.3-1.1,4.6-1.6,6.9-1.6c2,0,4,0.4,5.9,1.2c1.9,0.8,3.5,1.9,4.7,3.4v-15H119z
		 M111.3,39.3c0-2.8-1-5.2-3-7.2c-2-2-4.4-3-7.3-3c-2.7,0-5,1-7,3c-2,2-3,4.3-3,7c0,2.9,1,5.4,2.9,7.4c1.9,2.1,4.3,3.1,7.2,3.1
		c2.8,0,5.2-1,7.2-3C110.3,44.5,111.3,42.1,111.3,39.3z"/>
	<path class="st0" d="M122.2,56.5V10.6h8.3v45.9H122.2z"/>
	<path class="st1" d="M158.7,45.3h9.3c-1.1,3.6-3.2,6.6-6.5,8.9c-3.2,2.3-6.8,3.4-10.6,3.4c-2.3,0-4.6-0.5-6.9-1.4
		c-2.3-0.9-4.3-2.2-5.9-3.8c-1.8-1.8-3.2-3.8-4.2-6.1c-1-2.3-1.4-4.7-1.4-7.3c0-5,1.8-9.3,5.4-12.8c3.6-3.5,7.9-5.3,13-5.3
		c3.8,0,7.4,1.2,10.7,3.5c3.3,2.3,5.5,5.3,6.5,9h-9.3c-1.8-3-4.4-4.5-8-4.5c-2.9,0-5.3,1-7.2,2.9c-1.9,1.9-2.8,4.3-2.8,7.3
		c0,3,1,5.5,2.9,7.5c1.9,1.9,4.4,2.9,7.5,2.9c1.6,0,3-0.4,4.3-1.1C156.7,47.7,157.8,46.6,158.7,45.3z"/>
	<path class="st1" d="M187.8,21c5,0,9.3,1.8,12.8,5.4c1.8,1.8,3.1,3.8,3.9,5.9c0.9,2.1,1.3,4.5,1.3,7.1c0,5.1-1.8,9.4-5.4,12.9
		c-3.6,3.6-7.9,5.3-13,5.3c-5,0-9.2-1.8-12.8-5.4c-3.6-3.6-5.4-7.9-5.4-12.9c0-5.1,1.8-9.5,5.4-13.1C178.2,22.8,182.6,21,187.8,21z
		 M187.4,29.1c-0.6,0-1.2,0.1-1.9,0.2c-0.6,0.1-1.3,0.4-1.9,0.7c-1.3,0.5-2.3,1.3-3.3,2.2c-0.9,0.9-1.6,2-2.1,3.3
		c-0.5,1.2-0.7,2.6-0.7,3.9c0,2.8,1,5.2,2.9,7.2c1.9,2,4.3,3,7.1,3c2.9,0,5.3-1,7.2-2.9c1.9-2,2.9-4.4,2.9-7.3c0-2.9-1-5.3-2.9-7.3
		C192.6,30.1,190.2,29.1,187.4,29.1z"/>
	<path class="st1" d="M225.4,68V22.1h7.6v4.5c1.3-1.9,3-3.3,4.9-4.2c1.9-0.9,4-1.4,6.3-1.4c2.6,0,4.9,0.4,6.8,1.3
		c2,0.9,3.9,2.3,5.7,4.3c0.7,0.8,1.4,1.6,2,2.6c0.6,1,1.1,2,1.5,3.1c0.8,2.2,1.2,4.6,1.2,7c0,5-1.6,9.2-4.9,12.8
		c-3.3,3.7-7.5,5.5-12.4,5.5c-2.2,0-4.2-0.4-5.9-1.1c-1.7-0.8-3.2-2-4.6-3.7V68H225.4z M243.2,29.1c-2.9,0-5.3,1-7.2,3
		c-1.9,2-2.9,4.4-2.9,7.3c0,1.5,0.3,2.9,0.8,4.2c0.5,1.3,1.3,2.4,2.5,3.4c0.8,0.8,1.9,1.4,3.1,1.9c1.2,0.5,2.4,0.7,3.5,0.7
		c2.9,0,5.4-1,7.3-3c1.9-2,2.9-4.4,2.9-7.3c0-2.8-0.9-5.2-2.8-7.2C248.4,30.1,246.1,29.1,243.2,29.1z"/>
	<g>
		<linearGradient id="SVGID_1_" gradientUnits="userSpaceOnUse" x1="27.3194" y1="50.3909" x2="79.9098" y2="50.3909">
			<stop  offset="0" style="stop-color:#67CBE8"/>
			<stop  offset="0.9687" style="stop-color:#283B8E"/>
		</linearGradient>
		<path class="st2" d="M67.5,34.8c2.4,4.1,2.4,9.2,0,13.2v0c-0.6,1-1.3,1.9-2.1,2.8c-0.7,0.7-1.5,1.3-2.3,1.8c0,0-0.1,0-0.1,0
			l-0.8,0.5c0,0-0.1,0-0.1,0c-0.1,0-0.2,0.1-0.2,0.1c-2,1.2-5.8,3.4-5.8,3.4l-12.8,7.4l-7.9,4.6c0,0-0.1,0-0.1,0.1l-1,0.6l-0.6,0.3
			c-1.7,0.8-3.6,1.2-5.5,1.2c-1.1,0-2.3-0.1-3.4-0.5c-3.5-0.9-6.4-3.2-8.1-6.2v0l0,0v0l11.5-6.6l1.8-1l6.6-3.8l3.1-1.8l3.1-1.8
			l1.7-1h0l0,0l10.8-6.3h0c0,0,0,0,0,0c0,0,0.1,0,0.1-0.1c0,0,0.1,0,0.1,0l0.4-0.3v0l0.1,0h0l0.3-0.2c0,0,0.1,0,0.1,0
			c0,0,0.1,0,0.1-0.1c0.8-0.5,1.5-1.1,2.2-1.8c0.8-0.8,1.6-1.8,2.1-2.8c1.2-2,1.8-4.3,1.8-6.6c0,0,0.1,0.1,0.1,0.1
			c0.9,0.6,1.8,1.2,2.6,2C66.2,32.9,66.9,33.8,67.5,34.8L67.5,34.8z"/>
		<path class="st3" d="M56,26.1l6.6,3.9c0,2.3-0.6,4.6-1.8,6.6c-0.6,1-1.3,1.9-2.1,2.8c-0.7,0.7-1.4,1.3-2.2,1.8c0,0-0.1,0-0.1,0.1
			c0,0-0.1,0-0.1,0L56,41.4h0l0,0l0,0v0c0,0,0,0,0,0c2.4-4.1,2.3-9.2,0-13.2c0,0,0,0,0,0c-0.6-1-1.3-1.9-2.1-2.7
			c-0.7-0.7-1.4-1.3-2.2-1.8L56,26.1z"/>
		<linearGradient id="SVGID_2_" gradientUnits="userSpaceOnUse" x1="37.6749" y1="32.5059" x2="67.7698" y2="32.5059">
			<stop  offset="0.6474" style="stop-color:#3874B9"/>
			<stop  offset="0.6799" style="stop-color:#4489C5"/>
			<stop  offset="0.7331" style="stop-color:#53A6D4"/>
			<stop  offset="0.7861" style="stop-color:#5EBBDF"/>
			<stop  offset="0.8385" style="stop-color:#65C7E6"/>
			<stop  offset="0.8895" style="stop-color:#67CBE8"/>
		</linearGradient>
		<path class="st4" d="M56,26.1l6.6,3.9c0,2.3-0.6,4.6-1.8,6.6c-0.6,1-1.3,1.9-2.1,2.8c-0.7,0.7-1.4,1.3-2.2,1.8c0,0-0.1,0-0.1,0.1
			c0,0-0.1,0-0.1,0L56,41.4h0l0,0l0,0v0c0,0,0,0,0,0c2.4-4.1,2.3-9.2,0-13.2c0,0,0,0,0,0c-0.6-1-1.3-1.9-2.1-2.7
			c-0.7-0.7-1.4-1.3-2.2-1.8L56,26.1z"/>
		<linearGradient id="SVGID_3_" gradientUnits="userSpaceOnUse" x1="9.7053" y1="23.41" x2="64.0482" y2="23.41">
			<stop  offset="0" style="stop-color:#67CBE8"/>
			<stop  offset="0.1716" style="stop-color:#65C7E6"/>
			<stop  offset="0.3255" style="stop-color:#61BDDF"/>
			<stop  offset="0.4726" style="stop-color:#59AAD4"/>
			<stop  offset="0.6156" style="stop-color:#4D90C3"/>
			<stop  offset="0.7556" style="stop-color:#3F6FAF"/>
			<stop  offset="0.8915" style="stop-color:#2D4796"/>
			<stop  offset="0.9282" style="stop-color:#283B8E"/>
		</linearGradient>
		<path class="st5" d="M24.1,7.7L24.1,7.7L24.1,7.7l26.6,15.4c0,0,0,0,0.1,0c0,0,0,0,0,0l0.9,0.5c0.8,0.5,1.5,1.1,2.2,1.8
			c0.8,0.9,1.5,1.8,2.1,2.7c0,0,0,0,0,0c2.4,4.1,2.4,9.2,0,13.2c0,0,0,0,0,0v0h0l-11.5-6.6l-1.8-1l-12.8-7.4l-1.8-1l0,0L28,25.3
			l-11.3-6.5c0,0,0,0,0,0c0,0-0.1,0-0.1,0c-2.9-1.7-6.5-2.3-10.1-1.3c-1.1,0.3-2.2,0.8-3.2,1.3c0,0,0,0,0,0c0-2.4,0.6-4.7,1.8-6.6
			c2.3-4,6.6-6.7,11.5-6.7C19.4,5.4,22,6.2,24.1,7.7z"/>
		<path class="st6" d="M23.8,75.3L23.8,75.3c-0.1,0.2-0.3,0.3-0.5,0.4c0,0,0,0,0,0c-4.1-2.4-6.6-6.8-6.6-11.5
			c1.7,2.9,4.5,5.2,8.1,6.2c1.1,0.3,2.3,0.5,3.4,0.5c1.9,0,4-0.5,5.5-1.2l-3.8,2.2L23.8,75.3L23.8,75.3z"/>
		<linearGradient id="SVGID_4_" gradientUnits="userSpaceOnUse" x1="31.9013" y1="60.9377" x2="19.1323" y2="72.2291">
			<stop  offset="0.6886" style="stop-color:#E982B4"/>
			<stop  offset="1" style="stop-color:#E4138C"/>
		</linearGradient>
		<path class="st7" d="M23.8,75.3L23.8,75.3c-0.1,0.2-0.3,0.3-0.5,0.4c0,0,0,0,0,0c-4.1-2.4-6.6-6.8-6.6-11.5
			c1.7,2.9,4.5,5.2,8.1,6.2c1.1,0.3,2.3,0.5,3.4,0.5c1.9,0,4-0.5,5.5-1.2l-3.8,2.2L23.8,75.3L23.8,75.3z"/>
		<linearGradient id="SVGID_5_" gradientUnits="userSpaceOnUse" x1="13.6417" y1="18.7325" x2="13.1285" y2="77.4271">
			<stop  offset="0.2883" style="stop-color:#E4138C"/>
			<stop  offset="1" style="stop-color:#E982B4"/>
		</linearGradient>
		<path class="st8" d="M23.3,75.7C23.3,75.7,23.3,75.7,23.3,75.7c-2,1.2-4.3,1.8-6.6,1.8c-1.1,0-2.3-0.2-3.4-0.5
			c-3.5-0.9-6.4-3.2-8.1-6.2c-1.1-2-1.8-4.3-1.8-6.6l0,0V33.4v-2.8c0.2-1.9,0.8-3.7,1.8-5.3c1.7-2.9,4.5-5.1,8-6.1
			c1.2-0.3,2.4-0.5,3.5-0.5V32v0v0V34v7.7v3.6v3.5v2.1v0v13.3v0l0,0v0C16.6,68.9,19.2,73.3,23.3,75.7z"/>
		<path class="st9" d="M16.7,18.7L16.7,18.7c-1.2,0-2.3,0.2-3.5,0.5c-3.5,0.9-6.3,3.2-8,6.1c-1,1.6-1.5,3.9-1.8,5.3V18.7
			c0,0,0,0,0,0c1-0.6,2.1-1,3.2-1.3C10.1,16.4,13.7,17,16.7,18.7z"/>
		<linearGradient id="SVGID_6_" gradientUnits="userSpaceOnUse" x1="7.5311" y1="23.7467" x2="13.6398" y2="11.5037">
			<stop  offset="0" style="stop-color:#67CBE8"/>
			<stop  offset="0.9028" style="stop-color:#3874B9"/>
		</linearGradient>
		<path class="st10" d="M16.7,18.7L16.7,18.7c-1.2,0-2.3,0.2-3.5,0.5c-3.5,0.9-6.3,3.2-8,6.1c-1,1.6-1.5,3.9-1.8,5.3V18.7
			c0,0,0,0,0,0c1-0.6,2.1-1,3.2-1.3C10.1,16.4,13.7,17,16.7,18.7z"/>
	</g>
	<g>
		<g>
			<path class="st1" d="M261.6,20.6c0,1.6-1.3,2.8-2.9,2.8c-1.6,0-2.9-1.3-2.9-2.8c0-1.6,1.3-2.8,2.9-2.8
				C260.3,17.8,261.6,19,261.6,20.6z M256.5,20.6c0,1.3,0.9,2.3,2.2,2.3c1.2,0,2.1-1,2.1-2.2c0-1.3-0.9-2.3-2.2-2.3
				C257.4,18.4,256.5,19.4,256.5,20.6z M258.2,22.1h-0.7v-2.8c0.3,0,0.6-0.1,1.1-0.1c0.5,0,0.8,0.1,1,0.2c0.2,0.1,0.3,0.3,0.3,0.6
				c0,0.3-0.3,0.6-0.6,0.7v0c0.3,0.1,0.4,0.3,0.5,0.7c0.1,0.4,0.2,0.6,0.2,0.7h-0.7c-0.1-0.1-0.1-0.3-0.2-0.7
				c-0.1-0.3-0.2-0.4-0.6-0.4h-0.3V22.1z M258.2,20.5h0.3c0.4,0,0.7-0.1,0.7-0.4c0-0.3-0.2-0.4-0.6-0.4c-0.2,0-0.3,0-0.4,0V20.5z"/>
		</g>
	</g>
	<g>
		<g>
			<path class="st1" d="M225.4,68V22.1h7.6v4.5c1.3-1.9,3-3.3,4.9-4.2c1.9-0.9,4-1.4,6.3-1.4c2.6,0,4.9,0.4,6.8,1.3
				c2,0.9,3.9,2.3,5.7,4.3c0.7,0.8,1.4,1.6,2,2.6c0.6,1,1.1,2,1.5,3.1c0.8,2.2,1.2,4.6,1.2,7c0,5-1.6,9.2-4.9,12.8
				c-3.3,3.7-7.5,5.5-12.4,5.5c-2.2,0-4.2-0.4-5.9-1.1c-1.7-0.8-3.2-2-4.6-3.7V68H225.4z M243.2,29.1c-2.9,0-5.3,1-7.2,3
				c-1.9,2-2.9,4.4-2.9,7.3c0,1.5,0.3,2.9,0.8,4.2c0.5,1.3,1.3,2.4,2.5,3.4c0.8,0.8,1.9,1.4,3.1,1.9c1.2,0.5,2.4,0.7,3.5,0.7
				c2.9,0,5.4-1,7.3-3c1.9-2,2.9-4.4,2.9-7.3c0-2.8-0.9-5.2-2.8-7.2C248.4,30.1,246.1,29.1,243.2,29.1z"/>
		</g>
	</g>
	<path class="st1" d="M222.4,22.1c-1.6,0-3.1,0.3-4.2,1c-1.2,0.7-2.3,1.7-3.3,3.2v-4.2h-7.5v34.4h6.7h0.8h0.8V39
		c0-1.8,0.1-3.1,0.3-4c0.4-1.4,1-2.5,2.1-3.3c0.7-0.5,1.5-0.9,2.3-1.2c0.5-0.2,0.9-0.3,1.4-0.3c0.4-0.1,0.9-0.1,1.3-0.1v-8H222.4z"
		/>
	<g>
		<g>
			<path class="st11" d="M85.7,67.5v-5.4h-1.2v-1.2h3.7v1.2h-1.2v5.4H85.7z"/>
			<path class="st11" d="M94.3,60.8c1,0,1.8,0.3,2.4,1c0.7,0.7,1,1.5,1,2.5c0,1-0.3,1.8-1,2.4c-0.7,0.7-1.5,1-2.4,1
				c-0.9,0-1.8-0.3-2.4-1c-0.7-0.7-1-1.5-1-2.4c0-1,0.3-1.8,1-2.5C92.6,61.1,93.4,60.8,94.3,60.8z M94.3,61.9
				c-0.6,0-1.1,0.2-1.6,0.7c-0.4,0.4-0.6,1-0.6,1.6c0,0.6,0.2,1.1,0.7,1.6c0.4,0.5,1,0.7,1.6,0.7c0.6,0,1.1-0.2,1.6-0.7
				c0.4-0.5,0.7-1,0.7-1.6c0-0.6-0.2-1.2-0.6-1.6C95.5,62.2,94.9,61.9,94.3,61.9z"/>
			<path class="st11" d="M102.5,67.5l-1.9-6.6h1.3l1.2,4.6l1.1-4.6h0.9l1.1,4.6l1.2-4.6h1.3l-1.9,6.6h-1l-1.1-4.4l-1.1,4.4H102.5z"
				/>
			<path class="st11" d="M111.1,67.5l2.8-6.6h1l2.8,6.6h-1.4l-0.7-1.7h-2.3l-0.7,1.7H111.1z M113.6,64.6h1.4l-0.7-2L113.6,64.6z"/>
			<path class="st11" d="M120.7,67.5v-6.6h1.9c0.2,0,0.4,0,0.5,0c0.2,0,0.3,0,0.4,0.1c0.3,0.1,0.6,0.2,0.8,0.4
				c0.2,0.2,0.4,0.4,0.6,0.7c0.1,0.3,0.2,0.6,0.2,0.9c0,0.1,0,0.3,0,0.4c0,0.1-0.1,0.3-0.1,0.4c-0.1,0.3-0.2,0.5-0.4,0.7
				c-0.2,0.2-0.3,0.3-0.5,0.4c-0.2,0.1-0.4,0.2-0.6,0.2l1.8,2.4h-1.5l-1.7-2.5v2.5H120.7z M121.9,64h0.7c0.2,0,0.4,0,0.5,0
				c0.2,0,0.3-0.1,0.5-0.2c0.2-0.2,0.3-0.4,0.3-0.7c0-0.1,0-0.3-0.1-0.4c-0.1-0.1-0.1-0.2-0.3-0.3c-0.1-0.1-0.3-0.2-0.4-0.2
				c-0.1,0-0.1,0-0.2,0c-0.1,0-0.2,0-0.3,0h-0.7V64z"/>
			<path class="st11" d="M128.3,67.5v-6.6h1.4c0.4,0,0.7,0,1,0c0.3,0,0.7,0.1,1,0.2c0.3,0.1,0.6,0.3,0.8,0.5
				c0.4,0.3,0.6,0.7,0.8,1.2c0.1,0.2,0.2,0.5,0.2,0.7c0,0.2,0.1,0.5,0.1,0.7c0,0.5-0.1,0.9-0.3,1.4c-0.2,0.5-0.5,0.8-0.8,1.1
				c-0.3,0.2-0.5,0.4-0.8,0.5c-0.3,0.1-0.6,0.2-0.9,0.2c-0.1,0-0.3,0-0.4,0c-0.2,0-0.4,0-0.6,0H128.3z M129.5,66.3h0.2
				c0.5,0,0.9,0,1.2-0.1c0.2-0.1,0.5-0.2,0.7-0.3c0.3-0.2,0.4-0.4,0.6-0.7c0.1-0.3,0.2-0.6,0.2-0.9c0-0.4-0.1-0.7-0.2-1
				c-0.2-0.3-0.4-0.6-0.7-0.8c-0.2-0.2-0.5-0.3-0.9-0.3c-0.3,0-0.6-0.1-1-0.1h-0.1V66.3z"/>
			<path class="st11" d="M146.7,65.7h1.4c-0.2,0.6-0.7,1.1-1.2,1.4c-0.6,0.4-1.2,0.5-1.8,0.5c-0.9,0-1.8-0.3-2.4-1
				c-0.7-0.7-1-1.5-1-2.5c0-0.9,0.3-1.7,1-2.4c0.7-0.7,1.5-1,2.4-1c0.7,0,1.3,0.2,1.9,0.5c0.6,0.4,1,0.9,1.3,1.5h-1.4
				c-0.2-0.3-0.5-0.5-0.8-0.6c-0.3-0.1-0.6-0.2-1-0.2c-0.6,0-1.1,0.2-1.5,0.7c-0.4,0.4-0.6,1-0.6,1.6c0,0.6,0.2,1.1,0.7,1.6
				c0.4,0.4,0.9,0.7,1.5,0.7c0.3,0,0.6-0.1,0.9-0.2C146.2,66.1,146.4,66,146.7,65.7z"/>
			<path class="st11" d="M154.5,60.8c1,0,1.8,0.3,2.4,1c0.7,0.7,1,1.5,1,2.5c0,1-0.3,1.8-1,2.4c-0.7,0.7-1.5,1-2.4,1
				c-0.9,0-1.8-0.3-2.4-1s-1-1.5-1-2.4c0-1,0.3-1.8,1-2.5C152.7,61.1,153.5,60.8,154.5,60.8z M154.5,61.9c-0.6,0-1.1,0.2-1.6,0.7
				c-0.4,0.4-0.6,1-0.6,1.6c0,0.6,0.2,1.1,0.7,1.6c0.4,0.5,1,0.7,1.6,0.7s1.1-0.2,1.6-0.7c0.4-0.5,0.7-1,0.7-1.6
				c0-0.6-0.2-1.2-0.6-1.6C155.6,62.2,155.1,61.9,154.5,61.9z"/>
			<path class="st11" d="M161.3,67.5v-6.6h1.7l1.8,5.1l1.8-5.1h1.7v6.6H167v-5l-1.7,5h-1l-1.7-5v5H161.3z"/>
			<path class="st11" d="M171.8,67.5v-6.6h1.7l1.8,5.1l1.8-5.1h1.7v6.6h-1.2v-5l-1.7,5h-1l-1.7-5v5H171.8z"/>
			<path class="st11" d="M182.3,60.9h1.2V65v0.2c0,0.1,0,0.2,0,0.2c0,0.1,0,0.1,0,0.2c0,0.1,0,0.2,0.1,0.3c0.1,0.2,0.2,0.3,0.4,0.4
				c0.2,0.1,0.3,0.2,0.5,0.2c0.2,0,0.3,0,0.5-0.1c0.1-0.1,0.3-0.2,0.4-0.3c0.1-0.1,0.1-0.3,0.2-0.5c0-0.1,0-0.3,0-0.5v-4.1h1.2V65
				c0,0.4,0,0.7-0.1,0.9c-0.1,0.3-0.2,0.6-0.4,0.8c-0.2,0.3-0.5,0.5-0.8,0.6c-0.3,0.2-0.6,0.2-1,0.2c-0.3,0-0.6-0.1-0.9-0.2
				c-0.3-0.1-0.6-0.3-0.8-0.6c-0.2-0.2-0.4-0.5-0.4-0.9c0-0.1-0.1-0.3-0.1-0.4c0-0.2,0-0.3,0-0.6V60.9z"/>
			<path class="st11" d="M190.4,67.5v-6.6h1.4l2.8,4.8v-4.8h1.2v6.6h-1.4l-2.8-4.8v4.8H190.4z"/>
			<path class="st11" d="M199.5,67.5v-6.6h1.2v6.6H199.5z"/>
			<path class="st11" d="M205.1,67.5v-5.4h-1.2v-1.2h3.7v1.2h-1.2v5.4H205.1z"/>
			<path class="st11" d="M212.2,67.5v-2.4l-2.2-4.2h1.4l1.4,3l1.4-3h1.3l-2.2,4.2v2.4H212.2z"/>
		</g>
	</g>
</g>
</svg>
