<svg width="128" height="48" viewBox="0 0 128 48" fill="none" xmlns="http://www.w3.org/2000/svg">
<path d="M11.8497 20.6H37.5537L35.5137 10.4H13.8897L11.8497 20.6ZM26.4017 24V37.6H33.2017V41H16.2017V37.6H23.0017V24H9.38813C8.45653 24 7.84793 23.269 8.03323 22.3391L10.7702 8.6609C10.9538 7.7429 11.8582 7 12.8017 7H36.5983C37.5384 7 38.4462 7.731 38.6315 8.6609L41.3685 22.3391C41.5521 23.2571 40.9265 24 40.0136 24H26.4017Z" fill="#CA0000"/>
<path d="M65.134 30V28.944C65.3793 28.9333 65.582 28.9013 65.742 28.848C65.9127 28.7947 66.0407 28.672 66.126 28.48C66.222 28.288 66.27 27.9787 66.27 27.552V21.424C66.27 21.136 66.2753 20.8587 66.286 20.592C66.3073 20.3253 66.3233 20.1227 66.334 19.984C66.1633 19.9947 65.95 20.0053 65.694 20.016C65.438 20.016 65.2513 20.0213 65.134 20.032V18.8H69.726V19.856C69.4913 19.8667 69.2887 19.8987 69.118 19.952C68.9473 20.0053 68.814 20.128 68.718 20.32C68.6327 20.5013 68.59 20.8107 68.59 21.248V23.68H69.742L70.974 21.584C71.1553 21.264 71.3473 20.944 71.55 20.624C71.7527 20.304 71.9233 20.0853 72.062 19.968C71.8913 19.9787 71.71 19.9893 71.518 20C71.326 20.0107 71.1713 20.0213 71.054 20.032V18.8H74.974V19.856C74.7393 19.8667 74.4833 19.9093 74.206 19.984C73.9393 20.0587 73.662 20.208 73.374 20.432C73.086 20.656 72.7927 21.008 72.494 21.488L70.958 23.952C71.1713 24.0907 71.358 24.24 71.518 24.4C71.6887 24.5493 71.838 24.7147 71.966 24.896L73.614 27.216C73.8273 27.5147 74.046 27.7973 74.27 28.064C74.5047 28.32 74.7447 28.528 74.99 28.688C75.2353 28.848 75.4753 28.9333 75.71 28.944V30H73.246C73.1607 29.9893 73.022 29.8933 72.83 29.712C72.638 29.5307 72.4353 29.312 72.222 29.056C72.0087 28.8 71.8273 28.5707 71.678 28.368L70.094 26.064C69.9553 25.8613 69.8007 25.6533 69.63 25.44C69.47 25.2267 69.3153 25.0667 69.166 24.96H68.59V27.376C68.59 27.664 68.5847 27.9413 68.574 28.208C68.5633 28.4747 68.5473 28.6773 68.526 28.816C68.6967 28.7947 68.91 28.784 69.166 28.784C69.4327 28.7733 69.6193 28.768 69.726 28.768V30H65.134ZM79.7507 30.256C78.9721 30.256 78.2841 30.0853 77.6867 29.744C77.0894 29.392 76.6254 28.9013 76.2947 28.272C75.9641 27.632 75.7987 26.88 75.7987 26.016C75.7987 25.2693 75.9641 24.5707 76.2947 23.92C76.6254 23.2693 77.0894 22.7467 77.6867 22.352C78.2947 21.9467 78.9987 21.744 79.7987 21.744C80.2467 21.744 80.6841 21.808 81.1107 21.936C81.5374 22.0533 81.9214 22.2613 82.2627 22.56C82.6147 22.8587 82.8921 23.264 83.0947 23.776C83.3081 24.288 83.4094 24.928 83.3987 25.696L78.1507 25.792C78.1507 26.368 78.2201 26.8853 78.3587 27.344C78.5081 27.8027 78.7481 28.1653 79.0787 28.432C79.4094 28.6987 79.8521 28.832 80.4067 28.832C80.6201 28.832 80.8601 28.7947 81.1267 28.72C81.4041 28.6453 81.6814 28.5227 81.9587 28.352C82.2467 28.1707 82.5134 27.9307 82.7587 27.632L83.4787 28.304C83.0947 28.848 82.6841 29.264 82.2467 29.552C81.8094 29.8293 81.3721 30.016 80.9347 30.112C80.5081 30.208 80.1134 30.256 79.7507 30.256ZM78.2467 24.672H81.1907C81.1801 24.224 81.1161 23.872 80.9987 23.616C80.8921 23.3493 80.7427 23.1573 80.5507 23.04C80.3587 22.9227 80.1347 22.864 79.8787 22.864C79.4094 22.864 79.0414 23.0347 78.7747 23.376C78.5081 23.7067 78.3321 24.1387 78.2467 24.672ZM86.2176 34.336C85.8123 34.336 85.4656 34.2133 85.1776 33.968C84.9003 33.7333 84.7616 33.4187 84.7616 33.024C84.7616 32.736 84.8523 32.48 85.0336 32.256C85.2256 32.0427 85.4709 31.9307 85.7696 31.92C86.0043 31.9093 86.2016 31.984 86.3616 32.144C86.5323 32.3147 86.6176 32.544 86.6176 32.832C86.6176 32.864 86.6176 32.896 86.6176 32.928C86.6176 32.96 86.6123 32.9973 86.6016 33.04C86.6229 33.04 86.6496 33.0347 86.6816 33.024C86.7776 32.992 86.8789 32.9013 86.9856 32.752C87.1029 32.6133 87.2149 32.4267 87.3216 32.192C87.4389 31.9467 87.5509 31.6693 87.6576 31.36C87.7749 31.0613 87.8763 30.7467 87.9616 30.416L85.4336 25.344C85.1349 24.7467 84.9376 24.2987 84.8416 24C84.7563 23.6907 84.6976 23.4187 84.6656 23.184L83.9296 23.216V22H87.9136V23.024C87.5189 23.0667 87.3003 23.216 87.2576 23.472C87.2256 23.728 87.2736 23.9947 87.4016 24.272L88.9696 27.856C89.0763 27.5787 89.2149 27.152 89.3856 26.576C89.5563 25.9893 89.7589 25.3547 89.9936 24.672C90.0363 24.5333 90.0896 24.3733 90.1536 24.192C90.2283 24 90.3083 23.8133 90.3936 23.632C90.4789 23.44 90.5696 23.2853 90.6656 23.168L89.7536 23.216V22H92.6016V23.024C92.2709 23.0987 91.9936 23.3013 91.7696 23.632C91.5563 23.9627 91.3643 24.368 91.1936 24.848L89.1936 30.56C88.8949 31.424 88.6123 32.1333 88.3456 32.688C88.0789 33.2533 87.7803 33.6693 87.4496 33.936C87.1189 34.2027 86.7083 34.336 86.2176 34.336ZM93.3181 30V28.96C93.6168 28.96 93.8301 28.9013 93.9581 28.784C94.0861 28.6667 94.1661 28.5013 94.1981 28.288C94.2408 28.064 94.2621 27.8133 94.2621 27.536V24.848C94.2621 24.656 94.2674 24.4427 94.2781 24.208C94.2888 23.9627 94.3048 23.7227 94.3261 23.488C94.1554 23.4987 93.9528 23.5093 93.7181 23.52C93.4941 23.52 93.3234 23.5253 93.2061 23.536V22.32C93.6968 22.32 94.1128 22.2933 94.4541 22.24C94.7954 22.1867 95.0621 22.1227 95.2541 22.048C95.4568 21.9733 95.5954 21.904 95.6701 21.84H96.4541C96.4754 21.9787 96.4861 22.08 96.4861 22.144C96.4861 22.208 96.4861 22.272 96.4861 22.336C96.4968 22.3893 96.5181 22.4907 96.5501 22.64C96.7634 22.4693 97.0088 22.32 97.2861 22.192C97.5634 22.0533 97.8408 21.9467 98.1181 21.872C98.3954 21.7867 98.6408 21.744 98.8541 21.744C99.8354 21.744 100.529 22.0267 100.934 22.592C101.35 23.1467 101.558 24.0427 101.558 25.28V27.424C101.558 27.5733 101.553 27.7867 101.542 28.064C101.531 28.3307 101.515 28.5867 101.494 28.832C101.675 28.8107 101.867 28.8 102.07 28.8C102.273 28.7893 102.427 28.784 102.534 28.784V30H98.3421V28.96C98.6408 28.96 98.8541 28.9013 98.9821 28.784C99.1208 28.6667 99.2061 28.5013 99.2381 28.288C99.2808 28.064 99.3021 27.8133 99.3021 27.536L99.2861 25.264C99.2861 24.5707 99.1848 24.0587 98.9821 23.728C98.7901 23.3867 98.4594 23.216 97.9901 23.216C97.7234 23.216 97.4568 23.2747 97.1901 23.392C96.9341 23.5093 96.7154 23.648 96.5341 23.808C96.5341 23.9573 96.5341 24.112 96.5341 24.272C96.5341 24.4213 96.5341 24.5707 96.5341 24.72V27.424C96.5341 27.5733 96.5288 27.7867 96.5181 28.064C96.5074 28.3307 96.4914 28.5867 96.4701 28.832C96.6408 28.8107 96.8274 28.8 97.0301 28.8C97.2434 28.7893 97.4034 28.784 97.5101 28.784V30H93.3181ZM107.41 30.256C106.642 30.256 105.949 30.0907 105.33 29.76C104.711 29.4293 104.221 28.96 103.858 28.352C103.506 27.7333 103.33 27.008 103.33 26.176C103.33 25.2907 103.511 24.5173 103.874 23.856C104.247 23.184 104.738 22.6667 105.346 22.304C105.965 21.9307 106.637 21.744 107.362 21.744C108.13 21.744 108.818 21.9093 109.426 22.24C110.034 22.5707 110.514 23.0453 110.866 23.664C111.218 24.272 111.394 25.0027 111.394 25.856C111.394 26.752 111.223 27.5307 110.882 28.192C110.541 28.8533 110.071 29.3653 109.474 29.728C108.877 30.08 108.189 30.256 107.41 30.256ZM107.474 29.12C107.901 29.1093 108.221 28.96 108.434 28.672C108.658 28.384 108.813 28.0213 108.898 27.584C108.983 27.1467 109.026 26.704 109.026 26.256C109.026 25.8613 108.994 25.4613 108.93 25.056C108.877 24.6507 108.786 24.2827 108.658 23.952C108.53 23.6213 108.354 23.3547 108.13 23.152C107.917 22.9493 107.65 22.8533 107.33 22.864C106.914 22.8747 106.583 23.024 106.338 23.312C106.103 23.6 105.933 23.9627 105.826 24.4C105.73 24.8267 105.682 25.2747 105.682 25.744C105.682 26.288 105.741 26.8213 105.858 27.344C105.975 27.8667 106.162 28.2987 106.418 28.64C106.685 28.9707 107.037 29.1307 107.474 29.12ZM115.72 30.256C115.4 30.256 115.091 30.2187 114.792 30.144C114.504 30.0693 114.238 29.9307 113.992 29.728C113.758 29.5147 113.571 29.2053 113.432 28.8C113.294 28.3947 113.224 27.856 113.224 27.184L113.256 23.328H112.168V22C112.499 21.9893 112.819 21.8773 113.128 21.664C113.438 21.4507 113.699 21.1733 113.912 20.832C114.136 20.4907 114.286 20.1333 114.36 19.76H115.544L115.528 22H117.56V23.232L115.528 23.28L115.512 27.216C115.512 27.4613 115.534 27.7067 115.576 27.952C115.63 28.1867 115.726 28.384 115.864 28.544C116.003 28.6933 116.206 28.768 116.472 28.768C116.622 28.768 116.824 28.7147 117.08 28.608C117.347 28.5013 117.63 28.2347 117.928 27.808L118.696 28.528C118.408 28.9547 118.11 29.2853 117.8 29.52C117.491 29.7547 117.192 29.9253 116.904 30.032C116.627 30.1387 116.382 30.2027 116.168 30.224C115.955 30.2453 115.806 30.256 115.72 30.256ZM122.954 30.256C122.175 30.256 121.487 30.0853 120.89 29.744C120.293 29.392 119.829 28.9013 119.498 28.272C119.167 27.632 119.002 26.88 119.002 26.016C119.002 25.2693 119.167 24.5707 119.498 23.92C119.829 23.2693 120.293 22.7467 120.89 22.352C121.498 21.9467 122.202 21.744 123.002 21.744C123.45 21.744 123.887 21.808 124.314 21.936C124.741 22.0533 125.125 22.2613 125.466 22.56C125.818 22.8587 126.095 23.264 126.298 23.776C126.511 24.288 126.613 24.928 126.602 25.696L121.354 25.792C121.354 26.368 121.423 26.8853 121.562 27.344C121.711 27.8027 121.951 28.1653 122.282 28.432C122.613 28.6987 123.055 28.832 123.61 28.832C123.823 28.832 124.063 28.7947 124.33 28.72C124.607 28.6453 124.885 28.5227 125.162 28.352C125.45 28.1707 125.717 27.9307 125.962 27.632L126.682 28.304C126.298 28.848 125.887 29.264 125.45 29.552C125.013 29.8293 124.575 30.016 124.138 30.112C123.711 30.208 123.317 30.256 122.954 30.256ZM121.45 24.672H124.394C124.383 24.224 124.319 23.872 124.202 23.616C124.095 23.3493 123.946 23.1573 123.754 23.04C123.562 22.9227 123.338 22.864 123.082 22.864C122.613 22.864 122.245 23.0347 121.978 23.376C121.711 23.7067 121.535 24.1387 121.45 24.672Z" fill="#CA0000"/>
</svg>
