<svg width="25" height="34" viewBox="0 0 25 34" fill="none" xmlns="http://www.w3.org/2000/svg">
<path d="M20.6133 4.90875L19.8554 8.874C19.7647 9.30325 19.225 9.75658 18.7206 9.75658H11.6642C10.868 9.75658 10.3 10.3105 10.3 11.0953V11.9652C10.3 12.7712 10.8737 13.3252 11.6685 13.3252H17.661C18.2205 13.3252 18.773 13.9428 18.6484 14.5364L17.8905 18.4464C17.8182 18.7864 17.4456 19.3389 16.7784 19.3389H11.881C10.9885 19.3389 10.7221 19.4678 10.1257 20.1903C9.53071 20.9327 4.16721 27.3714 4.16721 27.3714C4.11479 27.4352 4.06238 27.4125 4.06238 27.3502V4.845C4.06238 4.33642 4.50296 3.74 5.16171 3.74H19.7165C20.2478 3.74 20.7507 4.24433 20.6133 4.90308V4.90875ZM21.2522 20.4637C21.4576 19.6449 23.7257 8.01975 24.4836 4.335L21.2522 20.4637ZM21.6885 0H3.55096C1.05054 0 0.316711 1.88133 0.316711 3.06567V31.8807C0.316711 33.2123 1.03071 33.7096 1.43446 33.8711C1.83679 34.0368 2.94888 34.1742 3.61754 33.4064C3.61754 33.4064 12.1799 23.4699 12.3244 23.324C12.5581 23.1016 12.5581 23.1016 12.7706 23.1016H18.3155C20.653 23.1016 21.0156 21.4441 21.2706 20.4666C21.4831 19.6605 23.7555 8.03675 24.4992 4.33783C25.073 1.53 24.3505 0 21.6942 0H21.6885Z" fill="#CA0000"/>
</svg>
