<svg width="25" height="24" viewBox="0 0 25 24" fill="none" xmlns="http://www.w3.org/2000/svg">
<path d="M21.504 7.975V6C21.504 3.794 19.71 2 17.504 2H7.504C5.298 2 3.504 3.794 3.504 6V7.998L3.428 8.002C3.1758 8.02021 2.93986 8.13328 2.76768 8.31845C2.59549 8.50362 2.49985 8.74714 2.5 9V11C2.5 11.2652 2.60536 11.5196 2.79289 11.7071C2.98043 11.8946 3.23478 12 3.5 12H3.504V18C3.504 18.735 3.907 19.372 4.5 19.72V21C4.5 21.2652 4.60536 21.5196 4.79289 21.7071C4.98043 21.8946 5.23478 22 5.5 22H6.5C6.76522 22 7.01957 21.8946 7.20711 21.7071C7.39464 21.5196 7.5 21.2652 7.5 21V20H17.5V21C17.5 21.2652 17.6054 21.5196 17.7929 21.7071C17.9804 21.8946 18.2348 22 18.5 22H19.5C19.7652 22 20.0196 21.8946 20.2071 21.7071C20.3946 21.5196 20.5 21.2652 20.5 21V19.724C20.804 19.5501 21.0569 19.2992 21.2331 18.9966C21.4094 18.6939 21.5028 18.3502 21.504 18V12C21.7692 12 22.0236 11.8946 22.2111 11.7071C22.3986 11.5196 22.504 11.2652 22.504 11V9.062C22.5155 8.90681 22.4909 8.75106 22.432 8.607C22.229 8.12 21.797 8.003 21.504 7.975ZM19.506 18H5.504V13H19.505L19.506 18ZM11.504 7V11H5.504V7H11.504ZM19.504 7V11H13.504V7H19.504ZM7.504 4H17.504C18.24 4 18.879 4.405 19.226 5H5.782C6.129 4.405 6.768 4 7.504 4Z" fill="white"/>
<path d="M8 17C8.82843 17 9.5 16.3284 9.5 15.5C9.5 14.6716 8.82843 14 8 14C7.17157 14 6.5 14.6716 6.5 15.5C6.5 16.3284 7.17157 17 8 17Z" fill="white"/>
<path d="M17 17C17.8284 17 18.5 16.3284 18.5 15.5C18.5 14.6716 17.8284 14 17 14C16.1716 14 15.5 14.6716 15.5 15.5C15.5 16.3284 16.1716 17 17 17Z" fill="white"/>
</svg>
